G04 (created by PCBNEW (22-Jun-2014 BZR 4027)-stable) date Wed 03 Feb 2016 19:08:17 GMT*
%MOIN*%
G04 Gerber Fmt 3.4, Leading zero omitted, Abs format*
%FSLAX34Y34*%
G01*
G70*
G90*
G04 APERTURE LIST*
%ADD10C,0.00590551*%
%ADD11C,0.0629921*%
%ADD12C,0.055*%
%ADD13C,0.110236*%
%ADD14C,0.0472441*%
%ADD15C,0.0433071*%
%ADD16C,0.0669291*%
%ADD17R,0.0472441X0.0472441*%
%ADD18R,0.11811X0.0472441*%
%ADD19C,0.106299*%
%ADD20C,0.035*%
%ADD21C,0.01*%
G04 APERTURE END LIST*
G54D10*
G54D11*
X82000Y-61000D03*
X82000Y-60000D03*
X81000Y-60000D03*
X81000Y-61000D03*
X80000Y-61000D03*
X80000Y-60000D03*
X83000Y-60000D03*
X83000Y-61000D03*
G54D12*
X78500Y-66050D03*
X78500Y-62550D03*
X76500Y-62550D03*
X76500Y-66050D03*
G54D11*
X75500Y-60000D03*
X74500Y-60000D03*
X73500Y-60000D03*
X72500Y-60000D03*
X76500Y-60000D03*
X77500Y-60000D03*
G54D13*
X75300Y-69250D03*
X79900Y-69250D03*
G54D14*
X76200Y-68500D03*
X77200Y-68500D03*
X78000Y-68500D03*
X79000Y-68500D03*
G54D11*
X72500Y-63800D03*
X72500Y-62800D03*
X72500Y-61800D03*
X73500Y-63800D03*
X73500Y-62800D03*
X73500Y-61800D03*
G54D15*
X81500Y-65000D03*
X80500Y-65000D03*
X82500Y-65000D03*
G54D16*
X82750Y-63000D03*
X80250Y-63000D03*
G54D14*
X81900Y-67900D03*
X80900Y-67900D03*
X82900Y-67900D03*
G54D17*
X72650Y-67950D03*
X73550Y-67950D03*
X74450Y-67950D03*
G54D18*
X73600Y-65500D03*
G54D19*
X83500Y-57800D03*
X71900Y-69300D03*
X71900Y-57800D03*
X83500Y-69300D03*
G54D20*
X71850Y-66800D03*
G54D21*
X82000Y-61000D02*
X82000Y-62250D01*
X82000Y-62250D02*
X82750Y-63000D01*
X77000Y-61300D02*
X76400Y-60700D01*
X75750Y-66450D02*
X75750Y-63150D01*
X75750Y-63150D02*
X75750Y-63200D01*
X75750Y-63200D02*
X75750Y-63150D01*
X82900Y-67900D02*
X82900Y-68000D01*
X73550Y-67600D02*
X74100Y-67050D01*
X74100Y-67050D02*
X75150Y-67050D01*
X75150Y-67050D02*
X75750Y-66450D01*
X73550Y-67600D02*
X73550Y-67950D01*
X76550Y-67250D02*
X75750Y-66450D01*
X79350Y-67250D02*
X76550Y-67250D01*
X80750Y-68650D02*
X79350Y-67250D01*
X82250Y-68650D02*
X80750Y-68650D01*
X82900Y-68000D02*
X82250Y-68650D01*
X76500Y-66050D02*
X76500Y-63900D01*
X76500Y-63900D02*
X75750Y-63150D01*
X78500Y-64200D02*
X77800Y-63500D01*
X75750Y-63150D02*
X75600Y-63000D01*
X75600Y-63000D02*
X75600Y-62100D01*
X75600Y-62100D02*
X76400Y-61300D01*
X76400Y-61300D02*
X77000Y-61300D01*
X78500Y-64200D02*
X78500Y-66050D01*
X77800Y-62100D02*
X77000Y-61300D01*
X77800Y-63500D02*
X77800Y-62100D01*
X72500Y-63800D02*
X72500Y-64200D01*
X74400Y-64800D02*
X75200Y-64000D01*
X73100Y-64800D02*
X74400Y-64800D01*
X72500Y-64200D02*
X73100Y-64800D01*
X75200Y-61400D02*
X75900Y-60700D01*
X75200Y-64000D02*
X75200Y-61400D01*
X77500Y-60000D02*
X76800Y-60700D01*
X76800Y-60700D02*
X76400Y-60700D01*
X83700Y-60300D02*
X83000Y-61000D01*
X83700Y-59600D02*
X83700Y-60300D01*
X83000Y-58900D02*
X83700Y-59600D01*
X72300Y-58900D02*
X83000Y-58900D01*
X71700Y-59500D02*
X72300Y-58900D01*
X71700Y-60100D02*
X71700Y-59500D01*
X72300Y-60700D02*
X71700Y-60100D01*
X76400Y-60700D02*
X75900Y-60700D01*
X75900Y-60700D02*
X72300Y-60700D01*
X75500Y-60000D02*
X76000Y-59500D01*
X78500Y-59500D02*
X80000Y-61000D01*
X76000Y-59500D02*
X78500Y-59500D01*
X79000Y-68500D02*
X79000Y-68150D01*
X74750Y-67650D02*
X74450Y-67950D01*
X78500Y-67650D02*
X74750Y-67650D01*
X79000Y-68150D02*
X78500Y-67650D01*
X72500Y-62800D02*
X72400Y-62800D01*
X84000Y-61900D02*
X83400Y-62500D01*
X84000Y-59400D02*
X84000Y-61900D01*
X83200Y-58600D02*
X84000Y-59400D01*
X72100Y-58600D02*
X83200Y-58600D01*
X71400Y-59300D02*
X72100Y-58600D01*
X71400Y-61800D02*
X71400Y-59300D01*
X72400Y-62800D02*
X71400Y-61800D01*
X82000Y-60000D02*
X82000Y-60200D01*
X82300Y-64200D02*
X81500Y-65000D01*
X82700Y-64200D02*
X82300Y-64200D01*
X83400Y-63500D02*
X82700Y-64200D01*
X83400Y-62500D02*
X83400Y-63500D01*
X82500Y-61600D02*
X83400Y-62500D01*
X82500Y-60700D02*
X82500Y-61600D01*
X82000Y-60200D02*
X82500Y-60700D01*
X81900Y-67900D02*
X80800Y-66800D01*
X77400Y-63450D02*
X76500Y-62550D01*
X77400Y-66200D02*
X77400Y-63450D01*
X78000Y-66800D02*
X77400Y-66200D01*
X80800Y-66800D02*
X78000Y-66800D01*
X81900Y-67900D02*
X81900Y-66500D01*
X81500Y-60500D02*
X81000Y-60000D01*
X81500Y-61600D02*
X81500Y-60500D01*
X81000Y-62100D02*
X81500Y-61600D01*
X81000Y-65600D02*
X81000Y-62100D01*
X81900Y-66500D02*
X81000Y-65600D01*
X72650Y-67950D02*
X72250Y-67950D01*
X71850Y-67550D02*
X71850Y-66800D01*
X72250Y-67950D02*
X71850Y-67550D01*
X78500Y-62550D02*
X79450Y-62550D01*
X79450Y-62550D02*
X81000Y-61000D01*
X83000Y-60000D02*
X83000Y-59900D01*
X75300Y-59200D02*
X74500Y-60000D01*
X82300Y-59200D02*
X75300Y-59200D01*
X83000Y-59900D02*
X82300Y-59200D01*
M02*
