G04 (created by PCBNEW (22-Jun-2014 BZR 4027)-stable) date Wed 03 Feb 2016 19:08:17 GMT*
%MOIN*%
G04 Gerber Fmt 3.4, Leading zero omitted, Abs format*
%FSLAX34Y34*%
G01*
G70*
G90*
G04 APERTURE LIST*
%ADD10C,0.00590551*%
%ADD11C,0.0001*%
%ADD12C,0.0629921*%
%ADD13C,0.055*%
%ADD14C,0.110236*%
%ADD15C,0.0472441*%
%ADD16C,0.0433071*%
%ADD17C,0.0669291*%
%ADD18C,0.106299*%
%ADD19C,0.035*%
%ADD20C,0.01*%
G04 APERTURE END LIST*
G54D10*
G54D11*
G36*
X72122Y-68078D02*
X72165Y-68078D01*
X72165Y-66870D01*
X72165Y-66816D01*
X72165Y-66759D01*
X72165Y-66715D01*
X72166Y-66682D01*
X72167Y-66659D01*
X72169Y-66644D01*
X72171Y-66635D01*
X72174Y-66632D01*
X72184Y-66630D01*
X72205Y-66625D01*
X72236Y-66619D01*
X72275Y-66611D01*
X72319Y-66603D01*
X72348Y-66598D01*
X72394Y-66589D01*
X72436Y-66581D01*
X72471Y-66574D01*
X72497Y-66568D01*
X72512Y-66565D01*
X72516Y-66563D01*
X72520Y-66555D01*
X72529Y-66536D01*
X72541Y-66509D01*
X72555Y-66477D01*
X72570Y-66442D01*
X72585Y-66406D01*
X72599Y-66372D01*
X72611Y-66343D01*
X72619Y-66321D01*
X72624Y-66308D01*
X72624Y-66307D01*
X72620Y-66297D01*
X72610Y-66278D01*
X72594Y-66254D01*
X72579Y-66231D01*
X72535Y-66169D01*
X72500Y-66117D01*
X72473Y-66076D01*
X72453Y-66045D01*
X72440Y-66023D01*
X72434Y-66010D01*
X72433Y-66008D01*
X72438Y-66000D01*
X72451Y-65984D01*
X72471Y-65962D01*
X72497Y-65935D01*
X72525Y-65905D01*
X72556Y-65874D01*
X72587Y-65843D01*
X72616Y-65814D01*
X72642Y-65789D01*
X72663Y-65769D01*
X72678Y-65757D01*
X72684Y-65753D01*
X72692Y-65757D01*
X72710Y-65768D01*
X72736Y-65784D01*
X72768Y-65806D01*
X72806Y-65831D01*
X72836Y-65852D01*
X72877Y-65879D01*
X72913Y-65904D01*
X72944Y-65924D01*
X72968Y-65939D01*
X72984Y-65948D01*
X72989Y-65951D01*
X72999Y-65948D01*
X73020Y-65941D01*
X73048Y-65930D01*
X73081Y-65916D01*
X73117Y-65902D01*
X73152Y-65886D01*
X73184Y-65872D01*
X73211Y-65859D01*
X73230Y-65850D01*
X73239Y-65844D01*
X73239Y-65844D01*
X73242Y-65834D01*
X73247Y-65813D01*
X73253Y-65782D01*
X73261Y-65743D01*
X73269Y-65699D01*
X73274Y-65675D01*
X73282Y-65629D01*
X73291Y-65586D01*
X73298Y-65550D01*
X73304Y-65522D01*
X73308Y-65504D01*
X73309Y-65500D01*
X73312Y-65495D01*
X73315Y-65492D01*
X73322Y-65489D01*
X73333Y-65487D01*
X73350Y-65486D01*
X73375Y-65485D01*
X73410Y-65485D01*
X73456Y-65484D01*
X73492Y-65484D01*
X73543Y-65485D01*
X73588Y-65485D01*
X73625Y-65487D01*
X73653Y-65488D01*
X73669Y-65490D01*
X73673Y-65491D01*
X73675Y-65499D01*
X73680Y-65520D01*
X73686Y-65550D01*
X73694Y-65589D01*
X73702Y-65633D01*
X73709Y-65670D01*
X73718Y-65717D01*
X73727Y-65761D01*
X73735Y-65798D01*
X73742Y-65826D01*
X73747Y-65844D01*
X73750Y-65849D01*
X73760Y-65856D01*
X73780Y-65865D01*
X73808Y-65877D01*
X73841Y-65891D01*
X73877Y-65905D01*
X73912Y-65919D01*
X73945Y-65932D01*
X73973Y-65941D01*
X73993Y-65947D01*
X74002Y-65949D01*
X74010Y-65944D01*
X74029Y-65932D01*
X74055Y-65915D01*
X74088Y-65893D01*
X74126Y-65868D01*
X74152Y-65849D01*
X74192Y-65822D01*
X74227Y-65798D01*
X74258Y-65778D01*
X74282Y-65763D01*
X74296Y-65755D01*
X74300Y-65753D01*
X74308Y-65758D01*
X74324Y-65771D01*
X74346Y-65792D01*
X74374Y-65819D01*
X74407Y-65851D01*
X74432Y-65876D01*
X74473Y-65917D01*
X74505Y-65950D01*
X74528Y-65975D01*
X74542Y-65993D01*
X74550Y-66005D01*
X74551Y-66012D01*
X74546Y-66021D01*
X74535Y-66040D01*
X74517Y-66068D01*
X74495Y-66101D01*
X74470Y-66138D01*
X74455Y-66160D01*
X74429Y-66199D01*
X74405Y-66235D01*
X74385Y-66266D01*
X74371Y-66289D01*
X74363Y-66304D01*
X74362Y-66308D01*
X74365Y-66318D01*
X74372Y-66338D01*
X74383Y-66366D01*
X74397Y-66399D01*
X74411Y-66435D01*
X74426Y-66471D01*
X74441Y-66503D01*
X74453Y-66531D01*
X74463Y-66551D01*
X74468Y-66561D01*
X74468Y-66561D01*
X74477Y-66564D01*
X74497Y-66569D01*
X74527Y-66576D01*
X74565Y-66584D01*
X74609Y-66592D01*
X74638Y-66598D01*
X74685Y-66607D01*
X74727Y-66615D01*
X74763Y-66622D01*
X74791Y-66627D01*
X74808Y-66631D01*
X74812Y-66632D01*
X74815Y-66640D01*
X74818Y-66660D01*
X74819Y-66689D01*
X74821Y-66725D01*
X74822Y-66767D01*
X74822Y-66810D01*
X74822Y-66854D01*
X74822Y-66896D01*
X74820Y-66933D01*
X74818Y-66964D01*
X74816Y-66985D01*
X74813Y-66995D01*
X74813Y-66995D01*
X74803Y-66998D01*
X74782Y-67003D01*
X74752Y-67010D01*
X74713Y-67018D01*
X74669Y-67026D01*
X74645Y-67031D01*
X74600Y-67039D01*
X74558Y-67048D01*
X74523Y-67056D01*
X74497Y-67062D01*
X74481Y-67067D01*
X74478Y-67069D01*
X74473Y-67078D01*
X74464Y-67098D01*
X74452Y-67126D01*
X74437Y-67159D01*
X74423Y-67196D01*
X74408Y-67233D01*
X74394Y-67268D01*
X74382Y-67298D01*
X74374Y-67322D01*
X74370Y-67336D01*
X74369Y-67338D01*
X74373Y-67346D01*
X74384Y-67364D01*
X74401Y-67390D01*
X74422Y-67422D01*
X74447Y-67459D01*
X74461Y-67479D01*
X74488Y-67518D01*
X74511Y-67553D01*
X74530Y-67584D01*
X74544Y-67607D01*
X74552Y-67621D01*
X74553Y-67625D01*
X74548Y-67632D01*
X74535Y-67648D01*
X74515Y-67670D01*
X74490Y-67697D01*
X74461Y-67727D01*
X74431Y-67758D01*
X74400Y-67789D01*
X74371Y-67818D01*
X74345Y-67843D01*
X74324Y-67863D01*
X74310Y-67876D01*
X74303Y-67880D01*
X74296Y-67876D01*
X74279Y-67866D01*
X74254Y-67849D01*
X74222Y-67828D01*
X74186Y-67803D01*
X74164Y-67788D01*
X74125Y-67762D01*
X74090Y-67739D01*
X74060Y-67719D01*
X74037Y-67705D01*
X74023Y-67697D01*
X74020Y-67696D01*
X74010Y-67699D01*
X73991Y-67708D01*
X73966Y-67720D01*
X73949Y-67729D01*
X73919Y-67744D01*
X73899Y-67753D01*
X73884Y-67753D01*
X73873Y-67744D01*
X73863Y-67725D01*
X73850Y-67693D01*
X73848Y-67689D01*
X73840Y-67670D01*
X73828Y-67639D01*
X73812Y-67600D01*
X73793Y-67553D01*
X73771Y-67502D01*
X73749Y-67447D01*
X73734Y-67412D01*
X73712Y-67359D01*
X73692Y-67309D01*
X73675Y-67266D01*
X73660Y-67229D01*
X73649Y-67201D01*
X73643Y-67183D01*
X73641Y-67178D01*
X73647Y-67169D01*
X73661Y-67155D01*
X73682Y-67138D01*
X73691Y-67131D01*
X73750Y-67082D01*
X73795Y-67030D01*
X73828Y-66975D01*
X73849Y-66915D01*
X73859Y-66848D01*
X73860Y-66812D01*
X73854Y-66740D01*
X73835Y-66674D01*
X73802Y-66613D01*
X73757Y-66558D01*
X73740Y-66542D01*
X73683Y-66500D01*
X73621Y-66470D01*
X73556Y-66452D01*
X73490Y-66447D01*
X73423Y-66453D01*
X73359Y-66472D01*
X73298Y-66502D01*
X73243Y-66545D01*
X73224Y-66563D01*
X73179Y-66620D01*
X73148Y-66680D01*
X73129Y-66745D01*
X73123Y-66816D01*
X73123Y-66817D01*
X73130Y-66888D01*
X73149Y-66955D01*
X73181Y-67016D01*
X73227Y-67072D01*
X73285Y-67124D01*
X73301Y-67136D01*
X73322Y-67152D01*
X73337Y-67166D01*
X73344Y-67176D01*
X73345Y-67177D01*
X73342Y-67187D01*
X73335Y-67207D01*
X73324Y-67234D01*
X73311Y-67266D01*
X73310Y-67270D01*
X73298Y-67299D01*
X73281Y-67338D01*
X73262Y-67385D01*
X73240Y-67437D01*
X73217Y-67492D01*
X73195Y-67547D01*
X73193Y-67551D01*
X73172Y-67601D01*
X73153Y-67646D01*
X73136Y-67686D01*
X73122Y-67718D01*
X73112Y-67741D01*
X73106Y-67754D01*
X73105Y-67755D01*
X73096Y-67755D01*
X73078Y-67748D01*
X73052Y-67737D01*
X73036Y-67729D01*
X73008Y-67715D01*
X72985Y-67704D01*
X72969Y-67697D01*
X72964Y-67696D01*
X72956Y-67700D01*
X72938Y-67711D01*
X72912Y-67727D01*
X72880Y-67748D01*
X72844Y-67773D01*
X72833Y-67780D01*
X72796Y-67806D01*
X72761Y-67829D01*
X72732Y-67849D01*
X72710Y-67863D01*
X72697Y-67872D01*
X72695Y-67873D01*
X72689Y-67875D01*
X72683Y-67874D01*
X72675Y-67870D01*
X72663Y-67862D01*
X72647Y-67847D01*
X72624Y-67826D01*
X72595Y-67797D01*
X72556Y-67759D01*
X72556Y-67759D01*
X72520Y-67722D01*
X72488Y-67689D01*
X72463Y-67662D01*
X72444Y-67640D01*
X72435Y-67627D01*
X72433Y-67624D01*
X72437Y-67614D01*
X72448Y-67595D01*
X72464Y-67568D01*
X72486Y-67535D01*
X72511Y-67498D01*
X72525Y-67477D01*
X72551Y-67439D01*
X72574Y-67404D01*
X72594Y-67375D01*
X72608Y-67353D01*
X72616Y-67340D01*
X72617Y-67338D01*
X72614Y-67329D01*
X72607Y-67309D01*
X72596Y-67282D01*
X72584Y-67249D01*
X72569Y-67213D01*
X72554Y-67177D01*
X72540Y-67142D01*
X72527Y-67111D01*
X72517Y-67088D01*
X72510Y-67074D01*
X72509Y-67072D01*
X72503Y-67067D01*
X72490Y-67063D01*
X72470Y-67057D01*
X72441Y-67050D01*
X72403Y-67042D01*
X72353Y-67033D01*
X72291Y-67021D01*
X72253Y-67014D01*
X72223Y-67009D01*
X72198Y-67004D01*
X72181Y-67000D01*
X72177Y-66999D01*
X72173Y-66997D01*
X72170Y-66993D01*
X72168Y-66983D01*
X72167Y-66968D01*
X72166Y-66945D01*
X72165Y-66913D01*
X72165Y-66870D01*
X72165Y-68078D01*
X73500Y-68078D01*
X74878Y-68078D01*
X74878Y-66700D01*
X74878Y-65322D01*
X73500Y-65322D01*
X72122Y-65322D01*
X72122Y-66700D01*
X72122Y-68078D01*
X72122Y-68078D01*
X72122Y-68078D01*
G37*
G36*
X72322Y-67928D02*
X72365Y-67928D01*
X72365Y-66720D01*
X72365Y-66666D01*
X72365Y-66609D01*
X72365Y-66565D01*
X72366Y-66532D01*
X72367Y-66509D01*
X72369Y-66494D01*
X72371Y-66485D01*
X72374Y-66482D01*
X72384Y-66480D01*
X72405Y-66475D01*
X72436Y-66469D01*
X72475Y-66461D01*
X72519Y-66453D01*
X72548Y-66448D01*
X72594Y-66439D01*
X72636Y-66431D01*
X72671Y-66424D01*
X72697Y-66418D01*
X72712Y-66415D01*
X72716Y-66413D01*
X72720Y-66405D01*
X72729Y-66386D01*
X72741Y-66359D01*
X72755Y-66327D01*
X72770Y-66292D01*
X72785Y-66256D01*
X72799Y-66222D01*
X72811Y-66193D01*
X72819Y-66171D01*
X72824Y-66158D01*
X72824Y-66157D01*
X72820Y-66147D01*
X72810Y-66128D01*
X72794Y-66104D01*
X72779Y-66081D01*
X72735Y-66019D01*
X72700Y-65967D01*
X72673Y-65926D01*
X72653Y-65895D01*
X72640Y-65873D01*
X72634Y-65860D01*
X72633Y-65858D01*
X72638Y-65850D01*
X72651Y-65834D01*
X72671Y-65812D01*
X72697Y-65785D01*
X72725Y-65755D01*
X72756Y-65724D01*
X72787Y-65693D01*
X72816Y-65664D01*
X72842Y-65639D01*
X72863Y-65619D01*
X72878Y-65607D01*
X72884Y-65603D01*
X72892Y-65607D01*
X72910Y-65618D01*
X72936Y-65634D01*
X72968Y-65656D01*
X73006Y-65681D01*
X73036Y-65702D01*
X73077Y-65729D01*
X73113Y-65754D01*
X73144Y-65774D01*
X73168Y-65789D01*
X73184Y-65798D01*
X73189Y-65801D01*
X73199Y-65798D01*
X73220Y-65791D01*
X73248Y-65780D01*
X73281Y-65766D01*
X73317Y-65752D01*
X73352Y-65736D01*
X73384Y-65722D01*
X73411Y-65709D01*
X73430Y-65700D01*
X73439Y-65694D01*
X73439Y-65694D01*
X73442Y-65684D01*
X73447Y-65663D01*
X73453Y-65632D01*
X73461Y-65593D01*
X73469Y-65549D01*
X73474Y-65525D01*
X73482Y-65479D01*
X73491Y-65436D01*
X73498Y-65400D01*
X73504Y-65372D01*
X73508Y-65354D01*
X73509Y-65350D01*
X73512Y-65345D01*
X73515Y-65342D01*
X73522Y-65339D01*
X73533Y-65337D01*
X73550Y-65336D01*
X73575Y-65335D01*
X73610Y-65335D01*
X73656Y-65334D01*
X73692Y-65334D01*
X73743Y-65335D01*
X73788Y-65335D01*
X73825Y-65337D01*
X73853Y-65338D01*
X73869Y-65340D01*
X73873Y-65341D01*
X73875Y-65349D01*
X73880Y-65370D01*
X73886Y-65400D01*
X73894Y-65439D01*
X73902Y-65483D01*
X73909Y-65520D01*
X73918Y-65567D01*
X73927Y-65611D01*
X73935Y-65648D01*
X73942Y-65676D01*
X73947Y-65694D01*
X73950Y-65699D01*
X73960Y-65706D01*
X73980Y-65715D01*
X74008Y-65727D01*
X74041Y-65741D01*
X74077Y-65755D01*
X74112Y-65769D01*
X74145Y-65782D01*
X74173Y-65791D01*
X74193Y-65797D01*
X74202Y-65799D01*
X74210Y-65794D01*
X74229Y-65782D01*
X74255Y-65765D01*
X74288Y-65743D01*
X74326Y-65718D01*
X74352Y-65699D01*
X74392Y-65672D01*
X74427Y-65648D01*
X74458Y-65628D01*
X74482Y-65613D01*
X74496Y-65605D01*
X74500Y-65603D01*
X74508Y-65608D01*
X74524Y-65621D01*
X74546Y-65642D01*
X74574Y-65669D01*
X74607Y-65701D01*
X74632Y-65726D01*
X74673Y-65767D01*
X74705Y-65800D01*
X74728Y-65825D01*
X74742Y-65843D01*
X74750Y-65855D01*
X74751Y-65862D01*
X74746Y-65871D01*
X74735Y-65890D01*
X74717Y-65918D01*
X74695Y-65951D01*
X74670Y-65988D01*
X74655Y-66010D01*
X74629Y-66049D01*
X74605Y-66085D01*
X74585Y-66116D01*
X74571Y-66139D01*
X74563Y-66154D01*
X74562Y-66158D01*
X74565Y-66168D01*
X74572Y-66188D01*
X74583Y-66216D01*
X74597Y-66249D01*
X74611Y-66285D01*
X74626Y-66321D01*
X74641Y-66353D01*
X74653Y-66381D01*
X74663Y-66401D01*
X74668Y-66411D01*
X74668Y-66411D01*
X74677Y-66414D01*
X74697Y-66419D01*
X74727Y-66426D01*
X74765Y-66434D01*
X74809Y-66442D01*
X74838Y-66448D01*
X74885Y-66457D01*
X74927Y-66465D01*
X74963Y-66472D01*
X74991Y-66477D01*
X75008Y-66481D01*
X75012Y-66482D01*
X75015Y-66490D01*
X75018Y-66510D01*
X75019Y-66539D01*
X75021Y-66575D01*
X75022Y-66617D01*
X75022Y-66660D01*
X75022Y-66704D01*
X75022Y-66746D01*
X75020Y-66783D01*
X75018Y-66814D01*
X75016Y-66835D01*
X75013Y-66845D01*
X75013Y-66845D01*
X75003Y-66848D01*
X74982Y-66853D01*
X74952Y-66860D01*
X74913Y-66868D01*
X74869Y-66876D01*
X74845Y-66881D01*
X74800Y-66889D01*
X74758Y-66898D01*
X74723Y-66906D01*
X74697Y-66912D01*
X74681Y-66917D01*
X74678Y-66919D01*
X74673Y-66928D01*
X74664Y-66948D01*
X74652Y-66976D01*
X74637Y-67009D01*
X74623Y-67046D01*
X74608Y-67083D01*
X74594Y-67118D01*
X74582Y-67148D01*
X74574Y-67172D01*
X74570Y-67186D01*
X74569Y-67188D01*
X74573Y-67196D01*
X74584Y-67214D01*
X74601Y-67240D01*
X74622Y-67272D01*
X74647Y-67309D01*
X74661Y-67329D01*
X74688Y-67368D01*
X74711Y-67403D01*
X74730Y-67434D01*
X74744Y-67457D01*
X74752Y-67471D01*
X74753Y-67475D01*
X74748Y-67482D01*
X74735Y-67498D01*
X74715Y-67520D01*
X74690Y-67547D01*
X74661Y-67577D01*
X74631Y-67608D01*
X74600Y-67639D01*
X74571Y-67668D01*
X74545Y-67693D01*
X74524Y-67713D01*
X74510Y-67726D01*
X74503Y-67730D01*
X74496Y-67726D01*
X74479Y-67716D01*
X74454Y-67699D01*
X74422Y-67678D01*
X74386Y-67653D01*
X74364Y-67638D01*
X74325Y-67612D01*
X74290Y-67589D01*
X74260Y-67569D01*
X74237Y-67555D01*
X74223Y-67547D01*
X74220Y-67546D01*
X74210Y-67549D01*
X74191Y-67558D01*
X74166Y-67570D01*
X74149Y-67579D01*
X74119Y-67594D01*
X74099Y-67603D01*
X74084Y-67603D01*
X74073Y-67594D01*
X74063Y-67575D01*
X74050Y-67543D01*
X74048Y-67539D01*
X74040Y-67520D01*
X74028Y-67489D01*
X74012Y-67450D01*
X73993Y-67403D01*
X73971Y-67352D01*
X73949Y-67297D01*
X73934Y-67262D01*
X73912Y-67209D01*
X73892Y-67159D01*
X73875Y-67116D01*
X73860Y-67079D01*
X73849Y-67051D01*
X73843Y-67033D01*
X73841Y-67028D01*
X73847Y-67019D01*
X73861Y-67005D01*
X73882Y-66988D01*
X73891Y-66981D01*
X73950Y-66932D01*
X73995Y-66880D01*
X74028Y-66825D01*
X74049Y-66765D01*
X74059Y-66698D01*
X74060Y-66662D01*
X74054Y-66590D01*
X74035Y-66524D01*
X74002Y-66463D01*
X73957Y-66408D01*
X73940Y-66392D01*
X73883Y-66350D01*
X73821Y-66320D01*
X73756Y-66302D01*
X73690Y-66297D01*
X73623Y-66303D01*
X73559Y-66322D01*
X73498Y-66352D01*
X73443Y-66395D01*
X73424Y-66413D01*
X73379Y-66470D01*
X73348Y-66530D01*
X73329Y-66595D01*
X73323Y-66666D01*
X73323Y-66667D01*
X73330Y-66738D01*
X73349Y-66805D01*
X73381Y-66866D01*
X73427Y-66922D01*
X73485Y-66974D01*
X73501Y-66986D01*
X73522Y-67002D01*
X73537Y-67016D01*
X73544Y-67026D01*
X73545Y-67027D01*
X73542Y-67037D01*
X73535Y-67057D01*
X73524Y-67084D01*
X73511Y-67116D01*
X73510Y-67120D01*
X73498Y-67149D01*
X73481Y-67188D01*
X73462Y-67235D01*
X73440Y-67287D01*
X73417Y-67342D01*
X73395Y-67397D01*
X73393Y-67401D01*
X73372Y-67451D01*
X73353Y-67496D01*
X73336Y-67536D01*
X73322Y-67568D01*
X73312Y-67591D01*
X73306Y-67604D01*
X73305Y-67605D01*
X73296Y-67605D01*
X73278Y-67598D01*
X73252Y-67587D01*
X73236Y-67579D01*
X73208Y-67565D01*
X73185Y-67554D01*
X73169Y-67547D01*
X73164Y-67546D01*
X73156Y-67550D01*
X73138Y-67561D01*
X73112Y-67577D01*
X73080Y-67598D01*
X73044Y-67623D01*
X73033Y-67630D01*
X72996Y-67656D01*
X72961Y-67679D01*
X72932Y-67699D01*
X72910Y-67713D01*
X72897Y-67722D01*
X72895Y-67723D01*
X72889Y-67725D01*
X72883Y-67724D01*
X72875Y-67720D01*
X72863Y-67712D01*
X72847Y-67697D01*
X72824Y-67676D01*
X72795Y-67647D01*
X72756Y-67609D01*
X72756Y-67609D01*
X72720Y-67572D01*
X72688Y-67539D01*
X72663Y-67512D01*
X72644Y-67490D01*
X72635Y-67477D01*
X72633Y-67474D01*
X72637Y-67464D01*
X72648Y-67445D01*
X72664Y-67418D01*
X72686Y-67385D01*
X72711Y-67348D01*
X72725Y-67327D01*
X72751Y-67289D01*
X72774Y-67254D01*
X72794Y-67225D01*
X72808Y-67203D01*
X72816Y-67190D01*
X72817Y-67188D01*
X72814Y-67179D01*
X72807Y-67159D01*
X72796Y-67132D01*
X72784Y-67099D01*
X72769Y-67063D01*
X72754Y-67027D01*
X72740Y-66992D01*
X72727Y-66961D01*
X72717Y-66938D01*
X72710Y-66924D01*
X72709Y-66922D01*
X72703Y-66917D01*
X72690Y-66913D01*
X72670Y-66907D01*
X72641Y-66900D01*
X72603Y-66892D01*
X72553Y-66883D01*
X72491Y-66871D01*
X72453Y-66864D01*
X72423Y-66859D01*
X72398Y-66854D01*
X72381Y-66850D01*
X72377Y-66849D01*
X72373Y-66847D01*
X72370Y-66843D01*
X72368Y-66833D01*
X72367Y-66818D01*
X72366Y-66795D01*
X72365Y-66763D01*
X72365Y-66720D01*
X72365Y-67928D01*
X73700Y-67928D01*
X75078Y-67928D01*
X75078Y-66550D01*
X75078Y-65172D01*
X73700Y-65172D01*
X72322Y-65172D01*
X72322Y-66550D01*
X72322Y-67928D01*
X72322Y-67928D01*
X72322Y-67928D01*
G37*
G54D12*
X82000Y-61000D03*
X82000Y-60000D03*
X81000Y-60000D03*
X81000Y-61000D03*
X80000Y-61000D03*
X80000Y-60000D03*
X83000Y-60000D03*
X83000Y-61000D03*
G54D13*
X78500Y-66050D03*
X78500Y-62550D03*
X76500Y-62550D03*
X76500Y-66050D03*
G54D12*
X75500Y-60000D03*
X74500Y-60000D03*
X73500Y-60000D03*
X72500Y-60000D03*
X76500Y-60000D03*
X77500Y-60000D03*
G54D14*
X75300Y-69250D03*
X79900Y-69250D03*
G54D15*
X76200Y-68500D03*
X77200Y-68500D03*
X78000Y-68500D03*
X79000Y-68500D03*
G54D12*
X72500Y-63800D03*
X72500Y-62800D03*
X72500Y-61800D03*
X73500Y-63800D03*
X73500Y-62800D03*
X73500Y-61800D03*
G54D16*
X81500Y-65000D03*
X80500Y-65000D03*
X82500Y-65000D03*
G54D17*
X82750Y-63000D03*
X80250Y-63000D03*
G54D15*
X81900Y-67900D03*
X80900Y-67900D03*
X82900Y-67900D03*
G54D18*
X83500Y-57800D03*
X71900Y-69300D03*
X71900Y-57800D03*
X83500Y-69300D03*
G54D19*
X71850Y-66800D03*
G54D10*
G36*
X84130Y-68500D02*
X83565Y-68500D01*
X83565Y-60888D01*
X83479Y-60680D01*
X83320Y-60521D01*
X83269Y-60500D01*
X83319Y-60479D01*
X83478Y-60320D01*
X83564Y-60112D01*
X83565Y-59888D01*
X83479Y-59680D01*
X83320Y-59521D01*
X83112Y-59435D01*
X82888Y-59434D01*
X82680Y-59520D01*
X82521Y-59679D01*
X82500Y-59730D01*
X82479Y-59680D01*
X82320Y-59521D01*
X82112Y-59435D01*
X81888Y-59434D01*
X81680Y-59520D01*
X81521Y-59679D01*
X81500Y-59730D01*
X81479Y-59680D01*
X81320Y-59521D01*
X81112Y-59435D01*
X80888Y-59434D01*
X80680Y-59520D01*
X80521Y-59679D01*
X80502Y-59724D01*
X80493Y-59703D01*
X80396Y-59673D01*
X80326Y-59744D01*
X80326Y-59603D01*
X80296Y-59506D01*
X80085Y-59430D01*
X79860Y-59441D01*
X79703Y-59506D01*
X79673Y-59603D01*
X80000Y-59929D01*
X80326Y-59603D01*
X80326Y-59744D01*
X80070Y-60000D01*
X80396Y-60326D01*
X80493Y-60296D01*
X80501Y-60273D01*
X80520Y-60319D01*
X80679Y-60478D01*
X80730Y-60499D01*
X80680Y-60520D01*
X80521Y-60679D01*
X80500Y-60730D01*
X80479Y-60680D01*
X80320Y-60521D01*
X80275Y-60502D01*
X80296Y-60493D01*
X80326Y-60396D01*
X80000Y-60070D01*
X79929Y-60141D01*
X79929Y-60000D01*
X79603Y-59673D01*
X79506Y-59703D01*
X79430Y-59914D01*
X79441Y-60139D01*
X79506Y-60296D01*
X79603Y-60326D01*
X79929Y-60000D01*
X79929Y-60141D01*
X79673Y-60396D01*
X79703Y-60493D01*
X79726Y-60501D01*
X79680Y-60520D01*
X79521Y-60679D01*
X79435Y-60887D01*
X79434Y-61111D01*
X79520Y-61319D01*
X79679Y-61478D01*
X79887Y-61564D01*
X80111Y-61565D01*
X80319Y-61479D01*
X80478Y-61320D01*
X80499Y-61269D01*
X80520Y-61319D01*
X80679Y-61478D01*
X80887Y-61564D01*
X81111Y-61565D01*
X81319Y-61479D01*
X81478Y-61320D01*
X81499Y-61269D01*
X81520Y-61319D01*
X81679Y-61478D01*
X81887Y-61564D01*
X82111Y-61565D01*
X82319Y-61479D01*
X82478Y-61320D01*
X82499Y-61269D01*
X82520Y-61319D01*
X82679Y-61478D01*
X82887Y-61564D01*
X83111Y-61565D01*
X83319Y-61479D01*
X83478Y-61320D01*
X83564Y-61112D01*
X83565Y-60888D01*
X83565Y-68500D01*
X83386Y-68500D01*
X83386Y-67803D01*
X83334Y-67678D01*
X83334Y-62884D01*
X83245Y-62669D01*
X83081Y-62504D01*
X82866Y-62415D01*
X82634Y-62415D01*
X82419Y-62504D01*
X82254Y-62668D01*
X82165Y-62883D01*
X82165Y-63115D01*
X82254Y-63330D01*
X82418Y-63495D01*
X82633Y-63584D01*
X82865Y-63584D01*
X83080Y-63495D01*
X83245Y-63331D01*
X83334Y-63116D01*
X83334Y-62884D01*
X83334Y-67678D01*
X83312Y-67624D01*
X83175Y-67488D01*
X82997Y-67413D01*
X82966Y-67413D01*
X82966Y-64907D01*
X82895Y-64736D01*
X82764Y-64604D01*
X82593Y-64533D01*
X82407Y-64533D01*
X82236Y-64604D01*
X82104Y-64735D01*
X82033Y-64906D01*
X82033Y-65092D01*
X82104Y-65263D01*
X82235Y-65395D01*
X82406Y-65466D01*
X82592Y-65466D01*
X82763Y-65395D01*
X82895Y-65264D01*
X82966Y-65093D01*
X82966Y-64907D01*
X82966Y-67413D01*
X82803Y-67413D01*
X82624Y-67487D01*
X82488Y-67624D01*
X82413Y-67802D01*
X82413Y-67996D01*
X82487Y-68175D01*
X82624Y-68311D01*
X82802Y-68386D01*
X82996Y-68386D01*
X83175Y-68312D01*
X83311Y-68175D01*
X83386Y-67997D01*
X83386Y-67803D01*
X83386Y-68500D01*
X82650Y-68500D01*
X82650Y-69930D01*
X82386Y-69930D01*
X82386Y-67803D01*
X82312Y-67624D01*
X82175Y-67488D01*
X81997Y-67413D01*
X81966Y-67413D01*
X81966Y-64907D01*
X81895Y-64736D01*
X81764Y-64604D01*
X81593Y-64533D01*
X81407Y-64533D01*
X81236Y-64604D01*
X81104Y-64735D01*
X81033Y-64906D01*
X81033Y-65092D01*
X81104Y-65263D01*
X81235Y-65395D01*
X81406Y-65466D01*
X81592Y-65466D01*
X81763Y-65395D01*
X81895Y-65264D01*
X81966Y-65093D01*
X81966Y-64907D01*
X81966Y-67413D01*
X81803Y-67413D01*
X81624Y-67487D01*
X81488Y-67624D01*
X81413Y-67802D01*
X81413Y-67996D01*
X81487Y-68175D01*
X81624Y-68311D01*
X81802Y-68386D01*
X81996Y-68386D01*
X82175Y-68312D01*
X82311Y-68175D01*
X82386Y-67997D01*
X82386Y-67803D01*
X82386Y-69930D01*
X81391Y-69930D01*
X81391Y-67966D01*
X81379Y-67773D01*
X81328Y-67650D01*
X81239Y-67631D01*
X81168Y-67701D01*
X81168Y-67560D01*
X81149Y-67471D01*
X80971Y-67410D01*
X80971Y-65061D01*
X80959Y-64876D01*
X80912Y-64762D01*
X80839Y-64748D01*
X80839Y-63090D01*
X80828Y-62857D01*
X80759Y-62691D01*
X80661Y-62659D01*
X80590Y-62730D01*
X80590Y-62588D01*
X80558Y-62490D01*
X80340Y-62410D01*
X80107Y-62421D01*
X79941Y-62490D01*
X79909Y-62588D01*
X80250Y-62929D01*
X80590Y-62588D01*
X80590Y-62730D01*
X80320Y-63000D01*
X80661Y-63340D01*
X80759Y-63308D01*
X80839Y-63090D01*
X80839Y-64748D01*
X80825Y-64745D01*
X80754Y-64816D01*
X80754Y-64674D01*
X80737Y-64587D01*
X80590Y-64538D01*
X80590Y-63411D01*
X80250Y-63070D01*
X80179Y-63141D01*
X80179Y-63000D01*
X79838Y-62659D01*
X79740Y-62691D01*
X79660Y-62909D01*
X79671Y-63142D01*
X79740Y-63308D01*
X79838Y-63340D01*
X80179Y-63000D01*
X80179Y-63141D01*
X79909Y-63411D01*
X79941Y-63509D01*
X80159Y-63589D01*
X80392Y-63578D01*
X80558Y-63509D01*
X80590Y-63411D01*
X80590Y-64538D01*
X80561Y-64528D01*
X80376Y-64540D01*
X80262Y-64587D01*
X80245Y-64674D01*
X80500Y-64929D01*
X80754Y-64674D01*
X80754Y-64816D01*
X80570Y-65000D01*
X80825Y-65254D01*
X80912Y-65237D01*
X80971Y-65061D01*
X80971Y-67410D01*
X80966Y-67408D01*
X80773Y-67420D01*
X80754Y-67428D01*
X80754Y-65325D01*
X80500Y-65070D01*
X80429Y-65141D01*
X80429Y-65000D01*
X80174Y-64745D01*
X80087Y-64762D01*
X80028Y-64938D01*
X80040Y-65123D01*
X80087Y-65237D01*
X80174Y-65254D01*
X80429Y-65000D01*
X80429Y-65141D01*
X80245Y-65325D01*
X80262Y-65412D01*
X80438Y-65471D01*
X80623Y-65459D01*
X80737Y-65412D01*
X80754Y-65325D01*
X80754Y-67428D01*
X80650Y-67471D01*
X80631Y-67560D01*
X80900Y-67829D01*
X81168Y-67560D01*
X81168Y-67701D01*
X80970Y-67900D01*
X81239Y-68168D01*
X81328Y-68149D01*
X81391Y-67966D01*
X81391Y-69930D01*
X81168Y-69930D01*
X81168Y-68239D01*
X80900Y-67970D01*
X80829Y-68041D01*
X80829Y-67900D01*
X80560Y-67631D01*
X80471Y-67650D01*
X80408Y-67833D01*
X80420Y-68026D01*
X80471Y-68149D01*
X80560Y-68168D01*
X80829Y-67900D01*
X80829Y-68041D01*
X80631Y-68239D01*
X80650Y-68328D01*
X80833Y-68391D01*
X81026Y-68379D01*
X81149Y-68328D01*
X81168Y-68239D01*
X81168Y-69930D01*
X80704Y-69930D01*
X80704Y-69391D01*
X80697Y-69073D01*
X80589Y-68811D01*
X80467Y-68753D01*
X80396Y-68823D01*
X80396Y-68682D01*
X80338Y-68560D01*
X80041Y-68445D01*
X79723Y-68452D01*
X79486Y-68550D01*
X79486Y-68403D01*
X79412Y-68224D01*
X79275Y-68088D01*
X79097Y-68013D01*
X79025Y-68013D01*
X79025Y-65946D01*
X79025Y-62446D01*
X78945Y-62253D01*
X78797Y-62105D01*
X78604Y-62025D01*
X78396Y-62024D01*
X78203Y-62104D01*
X78065Y-62242D01*
X78065Y-59888D01*
X77979Y-59680D01*
X77820Y-59521D01*
X77612Y-59435D01*
X77388Y-59434D01*
X77180Y-59520D01*
X77021Y-59679D01*
X77000Y-59730D01*
X76979Y-59680D01*
X76820Y-59521D01*
X76612Y-59435D01*
X76388Y-59434D01*
X76180Y-59520D01*
X76021Y-59679D01*
X76000Y-59730D01*
X75979Y-59680D01*
X75820Y-59521D01*
X75612Y-59435D01*
X75388Y-59434D01*
X75180Y-59520D01*
X75021Y-59679D01*
X75000Y-59730D01*
X74979Y-59680D01*
X74820Y-59521D01*
X74612Y-59435D01*
X74388Y-59434D01*
X74180Y-59520D01*
X74021Y-59679D01*
X74002Y-59724D01*
X73993Y-59703D01*
X73896Y-59673D01*
X73826Y-59744D01*
X73826Y-59603D01*
X73796Y-59506D01*
X73585Y-59430D01*
X73360Y-59441D01*
X73203Y-59506D01*
X73173Y-59603D01*
X73500Y-59929D01*
X73826Y-59603D01*
X73826Y-59744D01*
X73570Y-60000D01*
X73896Y-60326D01*
X73993Y-60296D01*
X74001Y-60273D01*
X74020Y-60319D01*
X74179Y-60478D01*
X74387Y-60564D01*
X74611Y-60565D01*
X74819Y-60479D01*
X74978Y-60320D01*
X74999Y-60269D01*
X75020Y-60319D01*
X75179Y-60478D01*
X75387Y-60564D01*
X75611Y-60565D01*
X75819Y-60479D01*
X75978Y-60320D01*
X75999Y-60269D01*
X76020Y-60319D01*
X76179Y-60478D01*
X76387Y-60564D01*
X76611Y-60565D01*
X76819Y-60479D01*
X76978Y-60320D01*
X76999Y-60269D01*
X77020Y-60319D01*
X77179Y-60478D01*
X77387Y-60564D01*
X77611Y-60565D01*
X77819Y-60479D01*
X77978Y-60320D01*
X78064Y-60112D01*
X78065Y-59888D01*
X78065Y-62242D01*
X78055Y-62252D01*
X77975Y-62445D01*
X77974Y-62653D01*
X78054Y-62847D01*
X78202Y-62994D01*
X78395Y-63074D01*
X78603Y-63075D01*
X78797Y-62995D01*
X78944Y-62847D01*
X79024Y-62654D01*
X79025Y-62446D01*
X79025Y-65946D01*
X78945Y-65753D01*
X78797Y-65605D01*
X78604Y-65525D01*
X78396Y-65524D01*
X78203Y-65604D01*
X78055Y-65752D01*
X77975Y-65945D01*
X77974Y-66153D01*
X78054Y-66347D01*
X78202Y-66494D01*
X78395Y-66574D01*
X78603Y-66575D01*
X78797Y-66495D01*
X78944Y-66347D01*
X79024Y-66154D01*
X79025Y-65946D01*
X79025Y-68013D01*
X78903Y-68013D01*
X78724Y-68087D01*
X78588Y-68224D01*
X78513Y-68402D01*
X78513Y-68596D01*
X78587Y-68775D01*
X78724Y-68911D01*
X78902Y-68986D01*
X79096Y-68986D01*
X79151Y-68963D01*
X79095Y-69108D01*
X79102Y-69426D01*
X79210Y-69688D01*
X79332Y-69746D01*
X79829Y-69250D01*
X79823Y-69244D01*
X79894Y-69173D01*
X79900Y-69179D01*
X80396Y-68682D01*
X80396Y-68823D01*
X79970Y-69250D01*
X80467Y-69746D01*
X80589Y-69688D01*
X80704Y-69391D01*
X80704Y-69930D01*
X80342Y-69930D01*
X80396Y-69817D01*
X79900Y-69320D01*
X79403Y-69817D01*
X79457Y-69930D01*
X78486Y-69930D01*
X78486Y-68403D01*
X78412Y-68224D01*
X78275Y-68088D01*
X78097Y-68013D01*
X77903Y-68013D01*
X77724Y-68087D01*
X77599Y-68212D01*
X77475Y-68088D01*
X77297Y-68013D01*
X77103Y-68013D01*
X77025Y-68046D01*
X77025Y-65946D01*
X77025Y-62446D01*
X76945Y-62253D01*
X76797Y-62105D01*
X76604Y-62025D01*
X76396Y-62024D01*
X76203Y-62104D01*
X76055Y-62252D01*
X75975Y-62445D01*
X75974Y-62653D01*
X76054Y-62847D01*
X76202Y-62994D01*
X76395Y-63074D01*
X76603Y-63075D01*
X76797Y-62995D01*
X76944Y-62847D01*
X77024Y-62654D01*
X77025Y-62446D01*
X77025Y-65946D01*
X76945Y-65753D01*
X76797Y-65605D01*
X76604Y-65525D01*
X76396Y-65524D01*
X76203Y-65604D01*
X76055Y-65752D01*
X75975Y-65945D01*
X75974Y-66153D01*
X76054Y-66347D01*
X76202Y-66494D01*
X76395Y-66574D01*
X76603Y-66575D01*
X76797Y-66495D01*
X76944Y-66347D01*
X77024Y-66154D01*
X77025Y-65946D01*
X77025Y-68046D01*
X76924Y-68087D01*
X76788Y-68224D01*
X76713Y-68402D01*
X76713Y-68596D01*
X76787Y-68775D01*
X76924Y-68911D01*
X77102Y-68986D01*
X77296Y-68986D01*
X77475Y-68912D01*
X77600Y-68787D01*
X77724Y-68911D01*
X77902Y-68986D01*
X78096Y-68986D01*
X78275Y-68912D01*
X78411Y-68775D01*
X78486Y-68597D01*
X78486Y-68403D01*
X78486Y-69930D01*
X76691Y-69930D01*
X76691Y-68566D01*
X76679Y-68373D01*
X76628Y-68250D01*
X76539Y-68231D01*
X76468Y-68301D01*
X76468Y-68160D01*
X76449Y-68071D01*
X76266Y-68008D01*
X76073Y-68020D01*
X75950Y-68071D01*
X75931Y-68160D01*
X76200Y-68429D01*
X76468Y-68160D01*
X76468Y-68301D01*
X76270Y-68500D01*
X76539Y-68768D01*
X76628Y-68749D01*
X76691Y-68566D01*
X76691Y-69930D01*
X76468Y-69930D01*
X76468Y-68839D01*
X76200Y-68570D01*
X76194Y-68576D01*
X76123Y-68505D01*
X76129Y-68500D01*
X75860Y-68231D01*
X75771Y-68250D01*
X75708Y-68433D01*
X75716Y-68552D01*
X75441Y-68445D01*
X75123Y-68452D01*
X74861Y-68560D01*
X74803Y-68682D01*
X75300Y-69179D01*
X75305Y-69173D01*
X75376Y-69244D01*
X75370Y-69250D01*
X75867Y-69746D01*
X75989Y-69688D01*
X76104Y-69391D01*
X76097Y-69073D01*
X76052Y-68963D01*
X76133Y-68991D01*
X76326Y-68979D01*
X76449Y-68928D01*
X76468Y-68839D01*
X76468Y-69930D01*
X75742Y-69930D01*
X75796Y-69817D01*
X75300Y-69320D01*
X75229Y-69391D01*
X75229Y-69250D01*
X74732Y-68753D01*
X74610Y-68811D01*
X74495Y-69108D01*
X74502Y-69426D01*
X74610Y-69688D01*
X74732Y-69746D01*
X75229Y-69250D01*
X75229Y-69391D01*
X74803Y-69817D01*
X74857Y-69930D01*
X74065Y-69930D01*
X74065Y-63688D01*
X73979Y-63480D01*
X73820Y-63321D01*
X73769Y-63300D01*
X73819Y-63279D01*
X73978Y-63120D01*
X74064Y-62912D01*
X74065Y-62688D01*
X73979Y-62480D01*
X73820Y-62321D01*
X73769Y-62300D01*
X73819Y-62279D01*
X73978Y-62120D01*
X74064Y-61912D01*
X74065Y-61688D01*
X73979Y-61480D01*
X73826Y-61326D01*
X73826Y-60396D01*
X73500Y-60070D01*
X73429Y-60141D01*
X73429Y-60000D01*
X73103Y-59673D01*
X73006Y-59703D01*
X72998Y-59726D01*
X72979Y-59680D01*
X72820Y-59521D01*
X72612Y-59435D01*
X72388Y-59434D01*
X72180Y-59520D01*
X72021Y-59679D01*
X71935Y-59887D01*
X71934Y-60111D01*
X72020Y-60319D01*
X72179Y-60478D01*
X72387Y-60564D01*
X72611Y-60565D01*
X72819Y-60479D01*
X72978Y-60320D01*
X72997Y-60275D01*
X73006Y-60296D01*
X73103Y-60326D01*
X73429Y-60000D01*
X73429Y-60141D01*
X73173Y-60396D01*
X73203Y-60493D01*
X73414Y-60569D01*
X73639Y-60558D01*
X73796Y-60493D01*
X73826Y-60396D01*
X73826Y-61326D01*
X73820Y-61321D01*
X73612Y-61235D01*
X73388Y-61234D01*
X73180Y-61320D01*
X73021Y-61479D01*
X73002Y-61524D01*
X72993Y-61503D01*
X72896Y-61473D01*
X72826Y-61544D01*
X72826Y-61403D01*
X72796Y-61306D01*
X72585Y-61230D01*
X72360Y-61241D01*
X72203Y-61306D01*
X72173Y-61403D01*
X72500Y-61729D01*
X72826Y-61403D01*
X72826Y-61544D01*
X72570Y-61800D01*
X72896Y-62126D01*
X72993Y-62096D01*
X73001Y-62073D01*
X73020Y-62119D01*
X73179Y-62278D01*
X73230Y-62299D01*
X73180Y-62320D01*
X73021Y-62479D01*
X73000Y-62530D01*
X72979Y-62480D01*
X72820Y-62321D01*
X72775Y-62302D01*
X72796Y-62293D01*
X72826Y-62196D01*
X72500Y-61870D01*
X72429Y-61941D01*
X72429Y-61800D01*
X72103Y-61473D01*
X72006Y-61503D01*
X71930Y-61714D01*
X71941Y-61939D01*
X72006Y-62096D01*
X72103Y-62126D01*
X72429Y-61800D01*
X72429Y-61941D01*
X72173Y-62196D01*
X72203Y-62293D01*
X72226Y-62301D01*
X72180Y-62320D01*
X72021Y-62479D01*
X71935Y-62687D01*
X71934Y-62911D01*
X72020Y-63119D01*
X72179Y-63278D01*
X72230Y-63299D01*
X72180Y-63320D01*
X72021Y-63479D01*
X71935Y-63687D01*
X71934Y-63911D01*
X72020Y-64119D01*
X72179Y-64278D01*
X72387Y-64364D01*
X72611Y-64365D01*
X72819Y-64279D01*
X72978Y-64120D01*
X72999Y-64069D01*
X73020Y-64119D01*
X73179Y-64278D01*
X73387Y-64364D01*
X73611Y-64365D01*
X73819Y-64279D01*
X73978Y-64120D01*
X74064Y-63912D01*
X74065Y-63688D01*
X74065Y-69930D01*
X72750Y-69930D01*
X72750Y-68550D01*
X72131Y-68550D01*
X72056Y-68518D01*
X71745Y-68518D01*
X71668Y-68550D01*
X71269Y-68550D01*
X71269Y-58600D01*
X72750Y-58600D01*
X72750Y-57169D01*
X82700Y-57169D01*
X82700Y-58650D01*
X84130Y-58650D01*
X84130Y-68500D01*
X84130Y-68500D01*
G37*
G54D20*
X84130Y-68500D02*
X83565Y-68500D01*
X83565Y-60888D01*
X83479Y-60680D01*
X83320Y-60521D01*
X83269Y-60500D01*
X83319Y-60479D01*
X83478Y-60320D01*
X83564Y-60112D01*
X83565Y-59888D01*
X83479Y-59680D01*
X83320Y-59521D01*
X83112Y-59435D01*
X82888Y-59434D01*
X82680Y-59520D01*
X82521Y-59679D01*
X82500Y-59730D01*
X82479Y-59680D01*
X82320Y-59521D01*
X82112Y-59435D01*
X81888Y-59434D01*
X81680Y-59520D01*
X81521Y-59679D01*
X81500Y-59730D01*
X81479Y-59680D01*
X81320Y-59521D01*
X81112Y-59435D01*
X80888Y-59434D01*
X80680Y-59520D01*
X80521Y-59679D01*
X80502Y-59724D01*
X80493Y-59703D01*
X80396Y-59673D01*
X80326Y-59744D01*
X80326Y-59603D01*
X80296Y-59506D01*
X80085Y-59430D01*
X79860Y-59441D01*
X79703Y-59506D01*
X79673Y-59603D01*
X80000Y-59929D01*
X80326Y-59603D01*
X80326Y-59744D01*
X80070Y-60000D01*
X80396Y-60326D01*
X80493Y-60296D01*
X80501Y-60273D01*
X80520Y-60319D01*
X80679Y-60478D01*
X80730Y-60499D01*
X80680Y-60520D01*
X80521Y-60679D01*
X80500Y-60730D01*
X80479Y-60680D01*
X80320Y-60521D01*
X80275Y-60502D01*
X80296Y-60493D01*
X80326Y-60396D01*
X80000Y-60070D01*
X79929Y-60141D01*
X79929Y-60000D01*
X79603Y-59673D01*
X79506Y-59703D01*
X79430Y-59914D01*
X79441Y-60139D01*
X79506Y-60296D01*
X79603Y-60326D01*
X79929Y-60000D01*
X79929Y-60141D01*
X79673Y-60396D01*
X79703Y-60493D01*
X79726Y-60501D01*
X79680Y-60520D01*
X79521Y-60679D01*
X79435Y-60887D01*
X79434Y-61111D01*
X79520Y-61319D01*
X79679Y-61478D01*
X79887Y-61564D01*
X80111Y-61565D01*
X80319Y-61479D01*
X80478Y-61320D01*
X80499Y-61269D01*
X80520Y-61319D01*
X80679Y-61478D01*
X80887Y-61564D01*
X81111Y-61565D01*
X81319Y-61479D01*
X81478Y-61320D01*
X81499Y-61269D01*
X81520Y-61319D01*
X81679Y-61478D01*
X81887Y-61564D01*
X82111Y-61565D01*
X82319Y-61479D01*
X82478Y-61320D01*
X82499Y-61269D01*
X82520Y-61319D01*
X82679Y-61478D01*
X82887Y-61564D01*
X83111Y-61565D01*
X83319Y-61479D01*
X83478Y-61320D01*
X83564Y-61112D01*
X83565Y-60888D01*
X83565Y-68500D01*
X83386Y-68500D01*
X83386Y-67803D01*
X83334Y-67678D01*
X83334Y-62884D01*
X83245Y-62669D01*
X83081Y-62504D01*
X82866Y-62415D01*
X82634Y-62415D01*
X82419Y-62504D01*
X82254Y-62668D01*
X82165Y-62883D01*
X82165Y-63115D01*
X82254Y-63330D01*
X82418Y-63495D01*
X82633Y-63584D01*
X82865Y-63584D01*
X83080Y-63495D01*
X83245Y-63331D01*
X83334Y-63116D01*
X83334Y-62884D01*
X83334Y-67678D01*
X83312Y-67624D01*
X83175Y-67488D01*
X82997Y-67413D01*
X82966Y-67413D01*
X82966Y-64907D01*
X82895Y-64736D01*
X82764Y-64604D01*
X82593Y-64533D01*
X82407Y-64533D01*
X82236Y-64604D01*
X82104Y-64735D01*
X82033Y-64906D01*
X82033Y-65092D01*
X82104Y-65263D01*
X82235Y-65395D01*
X82406Y-65466D01*
X82592Y-65466D01*
X82763Y-65395D01*
X82895Y-65264D01*
X82966Y-65093D01*
X82966Y-64907D01*
X82966Y-67413D01*
X82803Y-67413D01*
X82624Y-67487D01*
X82488Y-67624D01*
X82413Y-67802D01*
X82413Y-67996D01*
X82487Y-68175D01*
X82624Y-68311D01*
X82802Y-68386D01*
X82996Y-68386D01*
X83175Y-68312D01*
X83311Y-68175D01*
X83386Y-67997D01*
X83386Y-67803D01*
X83386Y-68500D01*
X82650Y-68500D01*
X82650Y-69930D01*
X82386Y-69930D01*
X82386Y-67803D01*
X82312Y-67624D01*
X82175Y-67488D01*
X81997Y-67413D01*
X81966Y-67413D01*
X81966Y-64907D01*
X81895Y-64736D01*
X81764Y-64604D01*
X81593Y-64533D01*
X81407Y-64533D01*
X81236Y-64604D01*
X81104Y-64735D01*
X81033Y-64906D01*
X81033Y-65092D01*
X81104Y-65263D01*
X81235Y-65395D01*
X81406Y-65466D01*
X81592Y-65466D01*
X81763Y-65395D01*
X81895Y-65264D01*
X81966Y-65093D01*
X81966Y-64907D01*
X81966Y-67413D01*
X81803Y-67413D01*
X81624Y-67487D01*
X81488Y-67624D01*
X81413Y-67802D01*
X81413Y-67996D01*
X81487Y-68175D01*
X81624Y-68311D01*
X81802Y-68386D01*
X81996Y-68386D01*
X82175Y-68312D01*
X82311Y-68175D01*
X82386Y-67997D01*
X82386Y-67803D01*
X82386Y-69930D01*
X81391Y-69930D01*
X81391Y-67966D01*
X81379Y-67773D01*
X81328Y-67650D01*
X81239Y-67631D01*
X81168Y-67701D01*
X81168Y-67560D01*
X81149Y-67471D01*
X80971Y-67410D01*
X80971Y-65061D01*
X80959Y-64876D01*
X80912Y-64762D01*
X80839Y-64748D01*
X80839Y-63090D01*
X80828Y-62857D01*
X80759Y-62691D01*
X80661Y-62659D01*
X80590Y-62730D01*
X80590Y-62588D01*
X80558Y-62490D01*
X80340Y-62410D01*
X80107Y-62421D01*
X79941Y-62490D01*
X79909Y-62588D01*
X80250Y-62929D01*
X80590Y-62588D01*
X80590Y-62730D01*
X80320Y-63000D01*
X80661Y-63340D01*
X80759Y-63308D01*
X80839Y-63090D01*
X80839Y-64748D01*
X80825Y-64745D01*
X80754Y-64816D01*
X80754Y-64674D01*
X80737Y-64587D01*
X80590Y-64538D01*
X80590Y-63411D01*
X80250Y-63070D01*
X80179Y-63141D01*
X80179Y-63000D01*
X79838Y-62659D01*
X79740Y-62691D01*
X79660Y-62909D01*
X79671Y-63142D01*
X79740Y-63308D01*
X79838Y-63340D01*
X80179Y-63000D01*
X80179Y-63141D01*
X79909Y-63411D01*
X79941Y-63509D01*
X80159Y-63589D01*
X80392Y-63578D01*
X80558Y-63509D01*
X80590Y-63411D01*
X80590Y-64538D01*
X80561Y-64528D01*
X80376Y-64540D01*
X80262Y-64587D01*
X80245Y-64674D01*
X80500Y-64929D01*
X80754Y-64674D01*
X80754Y-64816D01*
X80570Y-65000D01*
X80825Y-65254D01*
X80912Y-65237D01*
X80971Y-65061D01*
X80971Y-67410D01*
X80966Y-67408D01*
X80773Y-67420D01*
X80754Y-67428D01*
X80754Y-65325D01*
X80500Y-65070D01*
X80429Y-65141D01*
X80429Y-65000D01*
X80174Y-64745D01*
X80087Y-64762D01*
X80028Y-64938D01*
X80040Y-65123D01*
X80087Y-65237D01*
X80174Y-65254D01*
X80429Y-65000D01*
X80429Y-65141D01*
X80245Y-65325D01*
X80262Y-65412D01*
X80438Y-65471D01*
X80623Y-65459D01*
X80737Y-65412D01*
X80754Y-65325D01*
X80754Y-67428D01*
X80650Y-67471D01*
X80631Y-67560D01*
X80900Y-67829D01*
X81168Y-67560D01*
X81168Y-67701D01*
X80970Y-67900D01*
X81239Y-68168D01*
X81328Y-68149D01*
X81391Y-67966D01*
X81391Y-69930D01*
X81168Y-69930D01*
X81168Y-68239D01*
X80900Y-67970D01*
X80829Y-68041D01*
X80829Y-67900D01*
X80560Y-67631D01*
X80471Y-67650D01*
X80408Y-67833D01*
X80420Y-68026D01*
X80471Y-68149D01*
X80560Y-68168D01*
X80829Y-67900D01*
X80829Y-68041D01*
X80631Y-68239D01*
X80650Y-68328D01*
X80833Y-68391D01*
X81026Y-68379D01*
X81149Y-68328D01*
X81168Y-68239D01*
X81168Y-69930D01*
X80704Y-69930D01*
X80704Y-69391D01*
X80697Y-69073D01*
X80589Y-68811D01*
X80467Y-68753D01*
X80396Y-68823D01*
X80396Y-68682D01*
X80338Y-68560D01*
X80041Y-68445D01*
X79723Y-68452D01*
X79486Y-68550D01*
X79486Y-68403D01*
X79412Y-68224D01*
X79275Y-68088D01*
X79097Y-68013D01*
X79025Y-68013D01*
X79025Y-65946D01*
X79025Y-62446D01*
X78945Y-62253D01*
X78797Y-62105D01*
X78604Y-62025D01*
X78396Y-62024D01*
X78203Y-62104D01*
X78065Y-62242D01*
X78065Y-59888D01*
X77979Y-59680D01*
X77820Y-59521D01*
X77612Y-59435D01*
X77388Y-59434D01*
X77180Y-59520D01*
X77021Y-59679D01*
X77000Y-59730D01*
X76979Y-59680D01*
X76820Y-59521D01*
X76612Y-59435D01*
X76388Y-59434D01*
X76180Y-59520D01*
X76021Y-59679D01*
X76000Y-59730D01*
X75979Y-59680D01*
X75820Y-59521D01*
X75612Y-59435D01*
X75388Y-59434D01*
X75180Y-59520D01*
X75021Y-59679D01*
X75000Y-59730D01*
X74979Y-59680D01*
X74820Y-59521D01*
X74612Y-59435D01*
X74388Y-59434D01*
X74180Y-59520D01*
X74021Y-59679D01*
X74002Y-59724D01*
X73993Y-59703D01*
X73896Y-59673D01*
X73826Y-59744D01*
X73826Y-59603D01*
X73796Y-59506D01*
X73585Y-59430D01*
X73360Y-59441D01*
X73203Y-59506D01*
X73173Y-59603D01*
X73500Y-59929D01*
X73826Y-59603D01*
X73826Y-59744D01*
X73570Y-60000D01*
X73896Y-60326D01*
X73993Y-60296D01*
X74001Y-60273D01*
X74020Y-60319D01*
X74179Y-60478D01*
X74387Y-60564D01*
X74611Y-60565D01*
X74819Y-60479D01*
X74978Y-60320D01*
X74999Y-60269D01*
X75020Y-60319D01*
X75179Y-60478D01*
X75387Y-60564D01*
X75611Y-60565D01*
X75819Y-60479D01*
X75978Y-60320D01*
X75999Y-60269D01*
X76020Y-60319D01*
X76179Y-60478D01*
X76387Y-60564D01*
X76611Y-60565D01*
X76819Y-60479D01*
X76978Y-60320D01*
X76999Y-60269D01*
X77020Y-60319D01*
X77179Y-60478D01*
X77387Y-60564D01*
X77611Y-60565D01*
X77819Y-60479D01*
X77978Y-60320D01*
X78064Y-60112D01*
X78065Y-59888D01*
X78065Y-62242D01*
X78055Y-62252D01*
X77975Y-62445D01*
X77974Y-62653D01*
X78054Y-62847D01*
X78202Y-62994D01*
X78395Y-63074D01*
X78603Y-63075D01*
X78797Y-62995D01*
X78944Y-62847D01*
X79024Y-62654D01*
X79025Y-62446D01*
X79025Y-65946D01*
X78945Y-65753D01*
X78797Y-65605D01*
X78604Y-65525D01*
X78396Y-65524D01*
X78203Y-65604D01*
X78055Y-65752D01*
X77975Y-65945D01*
X77974Y-66153D01*
X78054Y-66347D01*
X78202Y-66494D01*
X78395Y-66574D01*
X78603Y-66575D01*
X78797Y-66495D01*
X78944Y-66347D01*
X79024Y-66154D01*
X79025Y-65946D01*
X79025Y-68013D01*
X78903Y-68013D01*
X78724Y-68087D01*
X78588Y-68224D01*
X78513Y-68402D01*
X78513Y-68596D01*
X78587Y-68775D01*
X78724Y-68911D01*
X78902Y-68986D01*
X79096Y-68986D01*
X79151Y-68963D01*
X79095Y-69108D01*
X79102Y-69426D01*
X79210Y-69688D01*
X79332Y-69746D01*
X79829Y-69250D01*
X79823Y-69244D01*
X79894Y-69173D01*
X79900Y-69179D01*
X80396Y-68682D01*
X80396Y-68823D01*
X79970Y-69250D01*
X80467Y-69746D01*
X80589Y-69688D01*
X80704Y-69391D01*
X80704Y-69930D01*
X80342Y-69930D01*
X80396Y-69817D01*
X79900Y-69320D01*
X79403Y-69817D01*
X79457Y-69930D01*
X78486Y-69930D01*
X78486Y-68403D01*
X78412Y-68224D01*
X78275Y-68088D01*
X78097Y-68013D01*
X77903Y-68013D01*
X77724Y-68087D01*
X77599Y-68212D01*
X77475Y-68088D01*
X77297Y-68013D01*
X77103Y-68013D01*
X77025Y-68046D01*
X77025Y-65946D01*
X77025Y-62446D01*
X76945Y-62253D01*
X76797Y-62105D01*
X76604Y-62025D01*
X76396Y-62024D01*
X76203Y-62104D01*
X76055Y-62252D01*
X75975Y-62445D01*
X75974Y-62653D01*
X76054Y-62847D01*
X76202Y-62994D01*
X76395Y-63074D01*
X76603Y-63075D01*
X76797Y-62995D01*
X76944Y-62847D01*
X77024Y-62654D01*
X77025Y-62446D01*
X77025Y-65946D01*
X76945Y-65753D01*
X76797Y-65605D01*
X76604Y-65525D01*
X76396Y-65524D01*
X76203Y-65604D01*
X76055Y-65752D01*
X75975Y-65945D01*
X75974Y-66153D01*
X76054Y-66347D01*
X76202Y-66494D01*
X76395Y-66574D01*
X76603Y-66575D01*
X76797Y-66495D01*
X76944Y-66347D01*
X77024Y-66154D01*
X77025Y-65946D01*
X77025Y-68046D01*
X76924Y-68087D01*
X76788Y-68224D01*
X76713Y-68402D01*
X76713Y-68596D01*
X76787Y-68775D01*
X76924Y-68911D01*
X77102Y-68986D01*
X77296Y-68986D01*
X77475Y-68912D01*
X77600Y-68787D01*
X77724Y-68911D01*
X77902Y-68986D01*
X78096Y-68986D01*
X78275Y-68912D01*
X78411Y-68775D01*
X78486Y-68597D01*
X78486Y-68403D01*
X78486Y-69930D01*
X76691Y-69930D01*
X76691Y-68566D01*
X76679Y-68373D01*
X76628Y-68250D01*
X76539Y-68231D01*
X76468Y-68301D01*
X76468Y-68160D01*
X76449Y-68071D01*
X76266Y-68008D01*
X76073Y-68020D01*
X75950Y-68071D01*
X75931Y-68160D01*
X76200Y-68429D01*
X76468Y-68160D01*
X76468Y-68301D01*
X76270Y-68500D01*
X76539Y-68768D01*
X76628Y-68749D01*
X76691Y-68566D01*
X76691Y-69930D01*
X76468Y-69930D01*
X76468Y-68839D01*
X76200Y-68570D01*
X76194Y-68576D01*
X76123Y-68505D01*
X76129Y-68500D01*
X75860Y-68231D01*
X75771Y-68250D01*
X75708Y-68433D01*
X75716Y-68552D01*
X75441Y-68445D01*
X75123Y-68452D01*
X74861Y-68560D01*
X74803Y-68682D01*
X75300Y-69179D01*
X75305Y-69173D01*
X75376Y-69244D01*
X75370Y-69250D01*
X75867Y-69746D01*
X75989Y-69688D01*
X76104Y-69391D01*
X76097Y-69073D01*
X76052Y-68963D01*
X76133Y-68991D01*
X76326Y-68979D01*
X76449Y-68928D01*
X76468Y-68839D01*
X76468Y-69930D01*
X75742Y-69930D01*
X75796Y-69817D01*
X75300Y-69320D01*
X75229Y-69391D01*
X75229Y-69250D01*
X74732Y-68753D01*
X74610Y-68811D01*
X74495Y-69108D01*
X74502Y-69426D01*
X74610Y-69688D01*
X74732Y-69746D01*
X75229Y-69250D01*
X75229Y-69391D01*
X74803Y-69817D01*
X74857Y-69930D01*
X74065Y-69930D01*
X74065Y-63688D01*
X73979Y-63480D01*
X73820Y-63321D01*
X73769Y-63300D01*
X73819Y-63279D01*
X73978Y-63120D01*
X74064Y-62912D01*
X74065Y-62688D01*
X73979Y-62480D01*
X73820Y-62321D01*
X73769Y-62300D01*
X73819Y-62279D01*
X73978Y-62120D01*
X74064Y-61912D01*
X74065Y-61688D01*
X73979Y-61480D01*
X73826Y-61326D01*
X73826Y-60396D01*
X73500Y-60070D01*
X73429Y-60141D01*
X73429Y-60000D01*
X73103Y-59673D01*
X73006Y-59703D01*
X72998Y-59726D01*
X72979Y-59680D01*
X72820Y-59521D01*
X72612Y-59435D01*
X72388Y-59434D01*
X72180Y-59520D01*
X72021Y-59679D01*
X71935Y-59887D01*
X71934Y-60111D01*
X72020Y-60319D01*
X72179Y-60478D01*
X72387Y-60564D01*
X72611Y-60565D01*
X72819Y-60479D01*
X72978Y-60320D01*
X72997Y-60275D01*
X73006Y-60296D01*
X73103Y-60326D01*
X73429Y-60000D01*
X73429Y-60141D01*
X73173Y-60396D01*
X73203Y-60493D01*
X73414Y-60569D01*
X73639Y-60558D01*
X73796Y-60493D01*
X73826Y-60396D01*
X73826Y-61326D01*
X73820Y-61321D01*
X73612Y-61235D01*
X73388Y-61234D01*
X73180Y-61320D01*
X73021Y-61479D01*
X73002Y-61524D01*
X72993Y-61503D01*
X72896Y-61473D01*
X72826Y-61544D01*
X72826Y-61403D01*
X72796Y-61306D01*
X72585Y-61230D01*
X72360Y-61241D01*
X72203Y-61306D01*
X72173Y-61403D01*
X72500Y-61729D01*
X72826Y-61403D01*
X72826Y-61544D01*
X72570Y-61800D01*
X72896Y-62126D01*
X72993Y-62096D01*
X73001Y-62073D01*
X73020Y-62119D01*
X73179Y-62278D01*
X73230Y-62299D01*
X73180Y-62320D01*
X73021Y-62479D01*
X73000Y-62530D01*
X72979Y-62480D01*
X72820Y-62321D01*
X72775Y-62302D01*
X72796Y-62293D01*
X72826Y-62196D01*
X72500Y-61870D01*
X72429Y-61941D01*
X72429Y-61800D01*
X72103Y-61473D01*
X72006Y-61503D01*
X71930Y-61714D01*
X71941Y-61939D01*
X72006Y-62096D01*
X72103Y-62126D01*
X72429Y-61800D01*
X72429Y-61941D01*
X72173Y-62196D01*
X72203Y-62293D01*
X72226Y-62301D01*
X72180Y-62320D01*
X72021Y-62479D01*
X71935Y-62687D01*
X71934Y-62911D01*
X72020Y-63119D01*
X72179Y-63278D01*
X72230Y-63299D01*
X72180Y-63320D01*
X72021Y-63479D01*
X71935Y-63687D01*
X71934Y-63911D01*
X72020Y-64119D01*
X72179Y-64278D01*
X72387Y-64364D01*
X72611Y-64365D01*
X72819Y-64279D01*
X72978Y-64120D01*
X72999Y-64069D01*
X73020Y-64119D01*
X73179Y-64278D01*
X73387Y-64364D01*
X73611Y-64365D01*
X73819Y-64279D01*
X73978Y-64120D01*
X74064Y-63912D01*
X74065Y-63688D01*
X74065Y-69930D01*
X72750Y-69930D01*
X72750Y-68550D01*
X72131Y-68550D01*
X72056Y-68518D01*
X71745Y-68518D01*
X71668Y-68550D01*
X71269Y-68550D01*
X71269Y-58600D01*
X72750Y-58600D01*
X72750Y-57169D01*
X82700Y-57169D01*
X82700Y-58650D01*
X84130Y-58650D01*
X84130Y-68500D01*
M02*
