G04 (created by PCBNEW (22-Jun-2014 BZR 4027)-stable) date Wed 03 Feb 2016 19:08:17 GMT*
%MOIN*%
G04 Gerber Fmt 3.4, Leading zero omitted, Abs format*
%FSLAX34Y34*%
G01*
G70*
G90*
G04 APERTURE LIST*
%ADD10C,0.00590551*%
%ADD11C,0.005*%
%ADD12C,0.006*%
G04 APERTURE END LIST*
G54D10*
X84400Y-61600D02*
X84400Y-51700D01*
X84400Y-51700D02*
X78600Y-51700D01*
X78600Y-51700D02*
X78600Y-61600D01*
X84400Y-61600D02*
X78600Y-61600D01*
G54D11*
X78250Y-65800D02*
X79000Y-65800D01*
X79000Y-65800D02*
X79000Y-62800D01*
X79000Y-62800D02*
X78000Y-62800D01*
X78000Y-62800D02*
X78000Y-65800D01*
X78000Y-65800D02*
X78250Y-65800D01*
X78500Y-66050D02*
X78500Y-65800D01*
X78500Y-62800D02*
X78500Y-62550D01*
X78250Y-65800D02*
X78000Y-65550D01*
X76750Y-62800D02*
X76000Y-62800D01*
X76000Y-62800D02*
X76000Y-65800D01*
X76000Y-65800D02*
X77000Y-65800D01*
X77000Y-65800D02*
X77000Y-62800D01*
X77000Y-62800D02*
X76750Y-62800D01*
X76500Y-62550D02*
X76500Y-62800D01*
X76500Y-65800D02*
X76500Y-66050D01*
X76750Y-62800D02*
X77000Y-63050D01*
G54D10*
X75800Y-52600D02*
X75800Y-53000D01*
X75800Y-53000D02*
X74300Y-53000D01*
X74300Y-53000D02*
X74300Y-52600D01*
X78100Y-60600D02*
X78100Y-52600D01*
X78100Y-52600D02*
X71900Y-52600D01*
X71900Y-52600D02*
X71900Y-60600D01*
X78100Y-60600D02*
X71900Y-60600D01*
X75250Y-70200D02*
X79950Y-70200D01*
X79950Y-69950D02*
X79950Y-75900D01*
X79950Y-75900D02*
X75250Y-75900D01*
X75250Y-75900D02*
X75250Y-70000D01*
X79400Y-68500D02*
X79950Y-68500D01*
X75800Y-68500D02*
X75250Y-68500D01*
X71700Y-61150D02*
X74250Y-61150D01*
X71700Y-64450D02*
X74250Y-64450D01*
X74250Y-64450D02*
G75*
G03X74250Y-61150I-1650J1650D01*
G74*
G01*
X71700Y-61150D02*
G75*
G03X71700Y-64450I1650J-1650D01*
G74*
G01*
X79800Y-64250D02*
X83200Y-64250D01*
X83200Y-64250D02*
X83200Y-65750D01*
X83200Y-65750D02*
X79800Y-65750D01*
X79800Y-65750D02*
X79800Y-64250D01*
X81800Y-63200D02*
X81800Y-62800D01*
X81800Y-62800D02*
X81200Y-62800D01*
X81200Y-62800D02*
X81200Y-63200D01*
X81200Y-63200D02*
X81800Y-63200D01*
X82700Y-62300D02*
X80300Y-62300D01*
X80300Y-62300D02*
X80300Y-62500D01*
X82700Y-62500D02*
X82700Y-62300D01*
X82700Y-63700D02*
X82700Y-63500D01*
X82700Y-63700D02*
X80300Y-63700D01*
X80300Y-63700D02*
X80300Y-63500D01*
X81000Y-68600D02*
X81000Y-68250D01*
X81000Y-67200D02*
X81000Y-67550D01*
X82800Y-68600D02*
X82800Y-68250D01*
X82800Y-67200D02*
X82800Y-67550D01*
X81000Y-68600D02*
X82800Y-68600D01*
X82800Y-67200D02*
X81000Y-67200D01*
X72250Y-66050D02*
X74850Y-66050D01*
X74850Y-66050D02*
X74850Y-67300D01*
X74850Y-67300D02*
X72250Y-67300D01*
X72250Y-67300D02*
X72250Y-66050D01*
X80412Y-58353D02*
X80543Y-58353D01*
X80600Y-58559D02*
X80412Y-58559D01*
X80412Y-58165D01*
X80600Y-58165D01*
X80750Y-58540D02*
X80806Y-58559D01*
X80900Y-58559D01*
X80937Y-58540D01*
X80956Y-58521D01*
X80975Y-58484D01*
X80975Y-58446D01*
X80956Y-58409D01*
X80937Y-58390D01*
X80900Y-58371D01*
X80825Y-58353D01*
X80787Y-58334D01*
X80768Y-58315D01*
X80750Y-58278D01*
X80750Y-58240D01*
X80768Y-58203D01*
X80787Y-58184D01*
X80825Y-58165D01*
X80918Y-58165D01*
X80975Y-58184D01*
X81143Y-58559D02*
X81143Y-58165D01*
X81293Y-58165D01*
X81331Y-58184D01*
X81350Y-58203D01*
X81368Y-58240D01*
X81368Y-58296D01*
X81350Y-58334D01*
X81331Y-58353D01*
X81293Y-58371D01*
X81143Y-58371D01*
X81537Y-58409D02*
X81837Y-58409D01*
X82099Y-58165D02*
X82137Y-58165D01*
X82174Y-58184D01*
X82193Y-58203D01*
X82212Y-58240D01*
X82231Y-58315D01*
X82231Y-58409D01*
X82212Y-58484D01*
X82193Y-58521D01*
X82174Y-58540D01*
X82137Y-58559D01*
X82099Y-58559D01*
X82062Y-58540D01*
X82043Y-58521D01*
X82024Y-58484D01*
X82006Y-58409D01*
X82006Y-58315D01*
X82024Y-58240D01*
X82043Y-58203D01*
X82062Y-58184D01*
X82099Y-58165D01*
X82606Y-58559D02*
X82381Y-58559D01*
X82493Y-58559D02*
X82493Y-58165D01*
X82456Y-58221D01*
X82418Y-58259D01*
X82381Y-58278D01*
G54D12*
X78702Y-64538D02*
X78702Y-64766D01*
X78702Y-64652D02*
X78202Y-64652D01*
X78273Y-64690D01*
X78321Y-64728D01*
X78345Y-64766D01*
X78202Y-64290D02*
X78202Y-64252D01*
X78226Y-64214D01*
X78250Y-64195D01*
X78297Y-64176D01*
X78392Y-64157D01*
X78511Y-64157D01*
X78607Y-64176D01*
X78654Y-64195D01*
X78678Y-64214D01*
X78702Y-64252D01*
X78702Y-64290D01*
X78678Y-64328D01*
X78654Y-64347D01*
X78607Y-64366D01*
X78511Y-64385D01*
X78392Y-64385D01*
X78297Y-64366D01*
X78250Y-64347D01*
X78226Y-64328D01*
X78202Y-64290D01*
X78702Y-63985D02*
X78202Y-63985D01*
X78511Y-63947D02*
X78702Y-63833D01*
X78369Y-63833D02*
X78559Y-63985D01*
X76702Y-64538D02*
X76702Y-64766D01*
X76702Y-64652D02*
X76202Y-64652D01*
X76273Y-64690D01*
X76321Y-64728D01*
X76345Y-64766D01*
X76202Y-64290D02*
X76202Y-64252D01*
X76226Y-64214D01*
X76250Y-64195D01*
X76297Y-64176D01*
X76392Y-64157D01*
X76511Y-64157D01*
X76607Y-64176D01*
X76654Y-64195D01*
X76678Y-64214D01*
X76702Y-64252D01*
X76702Y-64290D01*
X76678Y-64328D01*
X76654Y-64347D01*
X76607Y-64366D01*
X76511Y-64385D01*
X76392Y-64385D01*
X76297Y-64366D01*
X76250Y-64347D01*
X76226Y-64328D01*
X76202Y-64290D01*
X76702Y-63985D02*
X76202Y-63985D01*
X76511Y-63947D02*
X76702Y-63833D01*
X76369Y-63833D02*
X76559Y-63985D01*
G54D10*
X74175Y-58471D02*
X74156Y-58490D01*
X74100Y-58509D01*
X74062Y-58509D01*
X74006Y-58490D01*
X73968Y-58453D01*
X73950Y-58415D01*
X73931Y-58340D01*
X73931Y-58284D01*
X73950Y-58209D01*
X73968Y-58171D01*
X74006Y-58134D01*
X74062Y-58115D01*
X74100Y-58115D01*
X74156Y-58134D01*
X74175Y-58153D01*
X74343Y-58509D02*
X74343Y-58115D01*
X74493Y-58115D01*
X74531Y-58134D01*
X74550Y-58153D01*
X74568Y-58190D01*
X74568Y-58246D01*
X74550Y-58284D01*
X74531Y-58303D01*
X74493Y-58321D01*
X74343Y-58321D01*
X74718Y-58153D02*
X74737Y-58134D01*
X74775Y-58115D01*
X74868Y-58115D01*
X74906Y-58134D01*
X74925Y-58153D01*
X74943Y-58190D01*
X74943Y-58228D01*
X74925Y-58284D01*
X74700Y-58509D01*
X74943Y-58509D01*
X75318Y-58509D02*
X75093Y-58509D01*
X75206Y-58509D02*
X75206Y-58115D01*
X75168Y-58171D01*
X75131Y-58209D01*
X75093Y-58228D01*
X75562Y-58115D02*
X75599Y-58115D01*
X75637Y-58134D01*
X75656Y-58153D01*
X75674Y-58190D01*
X75693Y-58265D01*
X75693Y-58359D01*
X75674Y-58434D01*
X75656Y-58471D01*
X75637Y-58490D01*
X75599Y-58509D01*
X75562Y-58509D01*
X75524Y-58490D01*
X75506Y-58471D01*
X75487Y-58434D01*
X75468Y-58359D01*
X75468Y-58265D01*
X75487Y-58190D01*
X75506Y-58153D01*
X75524Y-58134D01*
X75562Y-58115D01*
X75843Y-58153D02*
X75862Y-58134D01*
X75899Y-58115D01*
X75993Y-58115D01*
X76031Y-58134D01*
X76049Y-58153D01*
X76068Y-58190D01*
X76068Y-58228D01*
X76049Y-58284D01*
X75824Y-58509D01*
X76068Y-58509D01*
X75165Y-63906D02*
X75559Y-63812D01*
X75278Y-63737D01*
X75559Y-63662D01*
X75165Y-63568D01*
X75540Y-63437D02*
X75559Y-63381D01*
X75559Y-63287D01*
X75540Y-63249D01*
X75521Y-63231D01*
X75484Y-63212D01*
X75446Y-63212D01*
X75409Y-63231D01*
X75390Y-63249D01*
X75371Y-63287D01*
X75353Y-63362D01*
X75334Y-63399D01*
X75315Y-63418D01*
X75278Y-63437D01*
X75240Y-63437D01*
X75203Y-63418D01*
X75184Y-63399D01*
X75165Y-63362D01*
X75165Y-63268D01*
X75184Y-63212D01*
X75203Y-63062D02*
X75184Y-63043D01*
X75165Y-63006D01*
X75165Y-62912D01*
X75184Y-62874D01*
X75203Y-62856D01*
X75240Y-62837D01*
X75278Y-62837D01*
X75334Y-62856D01*
X75559Y-63081D01*
X75559Y-62837D01*
X75334Y-62612D02*
X75315Y-62650D01*
X75296Y-62668D01*
X75259Y-62687D01*
X75240Y-62687D01*
X75203Y-62668D01*
X75184Y-62650D01*
X75165Y-62612D01*
X75165Y-62537D01*
X75184Y-62500D01*
X75203Y-62481D01*
X75240Y-62462D01*
X75259Y-62462D01*
X75296Y-62481D01*
X75315Y-62500D01*
X75334Y-62537D01*
X75334Y-62612D01*
X75353Y-62650D01*
X75371Y-62668D01*
X75409Y-62687D01*
X75484Y-62687D01*
X75521Y-62668D01*
X75540Y-62650D01*
X75559Y-62612D01*
X75559Y-62537D01*
X75540Y-62500D01*
X75521Y-62481D01*
X75484Y-62462D01*
X75409Y-62462D01*
X75371Y-62481D01*
X75353Y-62500D01*
X75334Y-62537D01*
X75559Y-62087D02*
X75559Y-62312D01*
X75559Y-62200D02*
X75165Y-62200D01*
X75221Y-62237D01*
X75259Y-62275D01*
X75278Y-62312D01*
X75203Y-61937D02*
X75184Y-61918D01*
X75165Y-61881D01*
X75165Y-61787D01*
X75184Y-61750D01*
X75203Y-61731D01*
X75240Y-61712D01*
X75278Y-61712D01*
X75334Y-61731D01*
X75559Y-61956D01*
X75559Y-61712D01*
X80515Y-64140D02*
X80571Y-64159D01*
X80665Y-64159D01*
X80703Y-64140D01*
X80721Y-64121D01*
X80740Y-64084D01*
X80740Y-64046D01*
X80721Y-64009D01*
X80703Y-63990D01*
X80665Y-63971D01*
X80590Y-63953D01*
X80553Y-63934D01*
X80534Y-63915D01*
X80515Y-63878D01*
X80515Y-63840D01*
X80534Y-63803D01*
X80553Y-63784D01*
X80590Y-63765D01*
X80684Y-63765D01*
X80740Y-63784D01*
X80871Y-63765D02*
X80965Y-64159D01*
X81040Y-63878D01*
X81115Y-64159D01*
X81209Y-63765D01*
X81359Y-64159D02*
X81359Y-63765D01*
X81490Y-63765D02*
X81715Y-63765D01*
X81603Y-64159D02*
X81603Y-63765D01*
X82071Y-64121D02*
X82053Y-64140D01*
X81996Y-64159D01*
X81959Y-64159D01*
X81903Y-64140D01*
X81865Y-64103D01*
X81846Y-64065D01*
X81828Y-63990D01*
X81828Y-63934D01*
X81846Y-63859D01*
X81865Y-63821D01*
X81903Y-63784D01*
X81959Y-63765D01*
X81996Y-63765D01*
X82053Y-63784D01*
X82071Y-63803D01*
X82240Y-64159D02*
X82240Y-63765D01*
X82240Y-63953D02*
X82465Y-63953D01*
X82465Y-64159D02*
X82465Y-63765D01*
X80609Y-61953D02*
X80665Y-61971D01*
X80684Y-61990D01*
X80703Y-62028D01*
X80703Y-62084D01*
X80684Y-62121D01*
X80665Y-62140D01*
X80628Y-62159D01*
X80478Y-62159D01*
X80478Y-61765D01*
X80609Y-61765D01*
X80646Y-61784D01*
X80665Y-61803D01*
X80684Y-61840D01*
X80684Y-61878D01*
X80665Y-61915D01*
X80646Y-61934D01*
X80609Y-61953D01*
X80478Y-61953D01*
X80871Y-61765D02*
X80871Y-62084D01*
X80890Y-62121D01*
X80909Y-62140D01*
X80946Y-62159D01*
X81021Y-62159D01*
X81059Y-62140D01*
X81078Y-62121D01*
X81096Y-62084D01*
X81096Y-61765D01*
X81228Y-61765D02*
X81453Y-61765D01*
X81340Y-62159D02*
X81340Y-61765D01*
X81528Y-61765D02*
X81753Y-61765D01*
X81640Y-62159D02*
X81640Y-61765D01*
X81959Y-61765D02*
X82034Y-61765D01*
X82071Y-61784D01*
X82109Y-61821D01*
X82128Y-61896D01*
X82128Y-62028D01*
X82109Y-62103D01*
X82071Y-62140D01*
X82034Y-62159D01*
X81959Y-62159D01*
X81921Y-62140D01*
X81884Y-62103D01*
X81865Y-62028D01*
X81865Y-61896D01*
X81884Y-61821D01*
X81921Y-61784D01*
X81959Y-61765D01*
X82296Y-62159D02*
X82296Y-61765D01*
X82521Y-62159D01*
X82521Y-61765D01*
X80662Y-67009D02*
X80662Y-66615D01*
X80756Y-66615D01*
X80812Y-66634D01*
X80850Y-66671D01*
X80868Y-66709D01*
X80887Y-66784D01*
X80887Y-66840D01*
X80868Y-66915D01*
X80850Y-66953D01*
X80812Y-66990D01*
X80756Y-67009D01*
X80662Y-67009D01*
X81037Y-66990D02*
X81093Y-67009D01*
X81187Y-67009D01*
X81225Y-66990D01*
X81243Y-66971D01*
X81262Y-66934D01*
X81262Y-66896D01*
X81243Y-66859D01*
X81225Y-66840D01*
X81187Y-66821D01*
X81112Y-66803D01*
X81075Y-66784D01*
X81056Y-66765D01*
X81037Y-66728D01*
X81037Y-66690D01*
X81056Y-66653D01*
X81075Y-66634D01*
X81112Y-66615D01*
X81206Y-66615D01*
X81262Y-66634D01*
X81637Y-67009D02*
X81412Y-67009D01*
X81525Y-67009D02*
X81525Y-66615D01*
X81487Y-66671D01*
X81450Y-66709D01*
X81412Y-66728D01*
X81862Y-66784D02*
X81825Y-66765D01*
X81806Y-66746D01*
X81787Y-66709D01*
X81787Y-66690D01*
X81806Y-66653D01*
X81825Y-66634D01*
X81862Y-66615D01*
X81937Y-66615D01*
X81974Y-66634D01*
X81993Y-66653D01*
X82012Y-66690D01*
X82012Y-66709D01*
X81993Y-66746D01*
X81974Y-66765D01*
X81937Y-66784D01*
X81862Y-66784D01*
X81825Y-66803D01*
X81806Y-66821D01*
X81787Y-66859D01*
X81787Y-66934D01*
X81806Y-66971D01*
X81825Y-66990D01*
X81862Y-67009D01*
X81937Y-67009D01*
X81974Y-66990D01*
X81993Y-66971D01*
X82012Y-66934D01*
X82012Y-66859D01*
X81993Y-66821D01*
X81974Y-66803D01*
X81937Y-66784D01*
X82312Y-66803D02*
X82368Y-66821D01*
X82387Y-66840D01*
X82406Y-66878D01*
X82406Y-66934D01*
X82387Y-66971D01*
X82368Y-66990D01*
X82331Y-67009D01*
X82181Y-67009D01*
X82181Y-66615D01*
X82312Y-66615D01*
X82349Y-66634D01*
X82368Y-66653D01*
X82387Y-66690D01*
X82387Y-66728D01*
X82368Y-66765D01*
X82349Y-66784D01*
X82312Y-66803D01*
X82181Y-66803D01*
X82556Y-66653D02*
X82574Y-66634D01*
X82612Y-66615D01*
X82706Y-66615D01*
X82743Y-66634D01*
X82762Y-66653D01*
X82781Y-66690D01*
X82781Y-66728D01*
X82762Y-66784D01*
X82537Y-67009D01*
X82781Y-67009D01*
X83024Y-66615D02*
X83062Y-66615D01*
X83099Y-66634D01*
X83118Y-66653D01*
X83137Y-66690D01*
X83156Y-66765D01*
X83156Y-66859D01*
X83137Y-66934D01*
X83118Y-66971D01*
X83099Y-66990D01*
X83062Y-67009D01*
X83024Y-67009D01*
X82987Y-66990D01*
X82968Y-66971D01*
X82949Y-66934D01*
X82931Y-66859D01*
X82931Y-66765D01*
X82949Y-66690D01*
X82968Y-66653D01*
X82987Y-66634D01*
X83024Y-66615D01*
M02*
