G04 (created by PCBNEW (22-Jun-2014 BZR 4027)-stable) date Wed 03 Feb 2016 19:08:17 GMT*
%MOIN*%
G04 Gerber Fmt 3.4, Leading zero omitted, Abs format*
%FSLAX34Y34*%
G01*
G70*
G90*
G04 APERTURE LIST*
%ADD10C,0.00590551*%
%ADD11C,0.0629921*%
%ADD12C,0.055*%
%ADD13C,0.110236*%
%ADD14C,0.0472441*%
%ADD15C,0.0433071*%
%ADD16C,0.0669291*%
%ADD17C,0.106299*%
G04 APERTURE END LIST*
G54D10*
G54D11*
X82000Y-61000D03*
X82000Y-60000D03*
X81000Y-60000D03*
X81000Y-61000D03*
X80000Y-61000D03*
X80000Y-60000D03*
X83000Y-60000D03*
X83000Y-61000D03*
G54D12*
X78500Y-66050D03*
X78500Y-62550D03*
X76500Y-62550D03*
X76500Y-66050D03*
G54D11*
X75500Y-60000D03*
X74500Y-60000D03*
X73500Y-60000D03*
X72500Y-60000D03*
X76500Y-60000D03*
X77500Y-60000D03*
G54D13*
X75300Y-69250D03*
X79900Y-69250D03*
G54D14*
X76200Y-68500D03*
X77200Y-68500D03*
X78000Y-68500D03*
X79000Y-68500D03*
G54D11*
X72500Y-63800D03*
X72500Y-62800D03*
X72500Y-61800D03*
X73500Y-63800D03*
X73500Y-62800D03*
X73500Y-61800D03*
G54D15*
X81500Y-65000D03*
X80500Y-65000D03*
X82500Y-65000D03*
G54D16*
X82750Y-63000D03*
X80250Y-63000D03*
G54D14*
X81900Y-67900D03*
X80900Y-67900D03*
X82900Y-67900D03*
G54D17*
X83500Y-57800D03*
X71900Y-69300D03*
X71900Y-57800D03*
X83500Y-69300D03*
M02*
