M48
METRIC,TZ
T1C0.635
T2C0.700
T3C0.800
T4C0.813
T5C1.000
T6C1.200
T7C2.200
%
G90
G05
T1
X182499Y-169672
T2
X204470Y-165100
X207010Y-165100
X209550Y-165100
T3
X193548Y-173990
X196088Y-173990
X198120Y-173990
X200660Y-173990
X205486Y-172466
X208026Y-172466
X210566Y-172466
T4
X194310Y-158877
X194310Y-167767
X199390Y-158877
X199390Y-167767
T5
X184150Y-152400
X184150Y-156972
X184150Y-159512
X184150Y-162052
X186690Y-152400
X186690Y-156972
X186690Y-159512
X186690Y-162052
X189230Y-152400
X191770Y-152400
X194310Y-152400
X196850Y-152400
X203200Y-152400
X203200Y-154940
X205740Y-152400
X205740Y-154940
X208280Y-152400
X208280Y-154940
X210820Y-152400
X210820Y-154940
T6
X203835Y-160020
X210185Y-160020
T7
X182626Y-146812
X182626Y-176022
X191262Y-175895
X202946Y-175895
X212090Y-146812
X212090Y-176022
T0
M30
